<svg width="50" height="46" viewBox="0 0 50 46" fill="none" xmlns="http://www.w3.org/2000/svg">
<path d="M3.38002 9.89186C3.3808 9.91356 3.38122 9.9369 3.38122 9.96196V37.0208C3.38122 37.5608 3.42451 38.0201 3.53782 38.3609C3.64668 38.6883 3.89786 39.0973 4.40544 39.0973H7.00372C7.50641 39.0973 7.76869 38.7061 7.88634 38.367C8.00552 38.0236 8.05072 37.5616 8.05072 37.0208V5.79726C8.05072 5.44514 8.01257 5.11068 7.89079 4.84665C7.82699 4.70834 7.73118 4.5696 7.58717 4.46553C7.43798 4.35771 7.26705 4.30902 7.09488 4.30902C6.9882 4.30902 6.83619 4.33777 6.69749 4.36641L6.68238 4.36953L6.6675 4.37357L1.48035 5.78278C1.18634 5.85182 0.940519 6.0207 0.780531 6.2864C0.628919 6.53819 0.57782 6.83745 0.57782 7.13843V8.9502C0.57782 9.31462 0.610919 9.67887 0.751485 9.94008L0.767454 9.96976L0.787261 9.99702C0.883595 10.1296 1.016 10.2405 1.18585 10.3023C1.34855 10.3616 1.51245 10.364 1.66055 10.3377C1.66822 10.3365 1.67436 10.3353 1.67784 10.3346C1.68664 10.3329 1.69449 10.3312 1.69935 10.3301C1.70984 10.3278 1.72186 10.3249 1.73383 10.322C1.75847 10.3159 1.79264 10.3073 1.83535 10.2964C1.92124 10.2745 2.0472 10.2419 2.21266 10.1987C2.4893 10.1265 2.87848 10.0242 3.38002 9.89186ZM14.776 9.89186C14.7768 9.91356 14.7772 9.9369 14.7772 9.96196V37.0208C14.7772 37.5608 14.8205 38.0201 14.9338 38.3609C15.0426 38.6883 15.2938 39.0973 15.8014 39.0973H18.3997C18.9024 39.0973 19.1646 38.7061 19.2823 38.367C19.4015 38.0236 19.4467 37.5616 19.4467 37.0208V5.79726C19.4467 5.44514 19.4085 5.11068 19.2867 4.84665C19.2229 4.70834 19.1271 4.5696 18.9831 4.46553C18.8339 4.35771 18.663 4.30902 18.4908 4.30902C18.3842 4.30902 18.2321 4.33777 18.0934 4.36641L18.0783 4.36953L18.0635 4.37357L12.8763 5.78278C12.5823 5.85182 12.3365 6.0207 12.1765 6.2864C12.0249 6.53819 11.9738 6.83745 11.9738 7.13843V8.9502C11.9738 9.31462 12.0069 9.67887 12.1474 9.94008L12.1634 9.96976L12.1832 9.99702C12.2796 10.1296 12.412 10.2405 12.5818 10.3023C12.7445 10.3616 12.9084 10.364 13.0565 10.3377C13.0642 10.3365 13.0703 10.3353 13.0738 10.3346C13.0826 10.3329 13.0905 10.3312 13.0953 10.3301C13.1058 10.3278 13.1178 10.3249 13.1298 10.322C13.1544 10.3159 13.1886 10.3073 13.2313 10.2964C13.3172 10.2745 13.4432 10.2419 13.6086 10.1987C13.8853 10.1265 14.2744 10.0242 14.776 9.89186ZM29.3744 38.9873L29.3828 38.9895L29.3913 38.9913C29.8607 39.0952 30.3922 39.1443 30.9808 39.1443H33.1232C33.4485 39.1443 33.7743 39.0413 34.0044 38.7628C34.2195 38.5025 34.2842 38.1673 34.2842 37.8443V36.5973C34.2842 36.3004 34.221 35.9845 34.0073 35.7393C33.7821 35.481 33.4702 35.3914 33.1688 35.3914H31.5962C31.2292 35.3914 30.9646 35.3214 30.775 35.2129C30.7267 35.1757 30.6462 35.0889 30.5469 34.9089C30.4434 34.721 30.3359 34.4618 30.2283 34.1219C30.0364 33.4683 29.931 32.5059 29.931 31.209V18.3914H32.6446C32.9795 18.3914 33.2827 18.2485 33.4749 17.9509C33.5741 17.7972 33.6231 17.6159 33.6507 17.4498C33.6795 17.2761 33.6916 17.076 33.6916 16.8561V15.962C33.6916 15.742 33.6795 15.5419 33.6507 15.3683C33.6231 15.2022 33.5741 15.0209 33.4749 14.8672C33.2827 14.5695 32.9795 14.4267 32.6446 14.4267H29.9354C29.9326 14.3884 29.931 14.3435 29.931 14.2914V5.96196C29.931 5.71295 29.919 5.49092 29.8916 5.30183C29.8659 5.12534 29.8214 4.93731 29.7319 4.7789C29.6541 4.63443 29.5434 4.50054 29.3901 4.40379C29.2319 4.30404 29.0571 4.26196 28.884 4.26196H27.2885C27.0998 4.26196 26.9156 4.31582 26.7553 4.43143C26.6004 4.54313 26.4941 4.69325 26.4209 4.8475C26.2808 5.14259 26.2274 5.52542 26.2189 5.94545L25.8318 14.2681L25.8318 14.2681L25.8316 14.2734C25.8295 14.3324 25.8259 14.3833 25.8214 14.4267H24.6219C24.4487 14.4267 24.2739 14.4687 24.1158 14.5685C23.9595 14.6671 23.8475 14.8043 23.7695 14.9519C23.6213 15.2324 23.5749 15.5891 23.5749 15.962V16.8561C23.5749 17.2289 23.6213 17.5857 23.7695 17.8661C23.8475 18.0138 23.9595 18.1509 24.1158 18.2495C24.2739 18.3493 24.4487 18.3914 24.6219 18.3914H25.8313V31.209C25.8313 32.4671 25.9083 33.5705 26.066 34.5149L26.0659 34.5149L26.0677 34.5244C26.2392 35.4418 26.4619 36.2086 26.7449 36.8101L26.7486 36.8178L26.7524 36.8254C27.0544 37.4143 27.4412 37.8994 27.9193 38.265L27.9192 38.2651L27.9262 38.2703C28.393 38.6144 28.8758 38.8586 29.3744 38.9873ZM40.6086 40.6306L40.6085 40.6305L40.6048 40.6381C40.4439 40.9704 40.293 41.1823 40.1635 41.3053C40.0397 41.4229 39.9595 41.4384 39.9152 41.4384C39.8164 41.4384 39.5565 41.3909 39.0787 41.2477C38.842 41.1768 38.655 41.1224 38.52 41.0855C38.4529 41.0672 38.3946 41.052 38.3475 41.0411C38.3245 41.0358 38.2403 41.0149 38.1603 41.0149C37.67 41.0149 37.4203 41.4002 37.3113 41.7171C37.2002 42.0403 37.1588 42.4723 37.1588 42.9737C37.1588 43.1982 37.1688 43.3987 37.1918 43.5698C37.2136 43.7317 37.252 43.9081 37.3325 44.0577L37.3364 44.0649L37.3405 44.072C37.8432 44.937 38.8739 45.262 40.1432 45.262H40.4394H40.4505L40.4615 45.2615C41.6907 45.2071 42.6811 44.6338 43.4023 43.5891C44.1238 42.5656 44.6761 40.7917 45.1023 38.3572C45.1025 38.3562 45.1027 38.3551 45.1029 38.354L49.2043 16.5013L49.2065 16.4895L49.2082 16.4776C49.2311 16.3122 49.2485 16.1825 49.2603 16.0893L49.2607 16.0861C49.2696 16.0153 49.2813 15.9228 49.2813 15.8678C49.2813 15.5348 49.2492 15.2203 49.1468 14.9716C49.0936 14.8425 49.0107 14.7044 48.878 14.5969C48.7371 14.4828 48.5685 14.4267 48.3938 14.4267H46.844C46.4292 14.4267 46.1233 14.6622 45.9315 14.9802C45.7548 15.2732 45.6542 15.6615 45.5974 16.0982L43.1258 30.1115L40.1108 16.0122C40.0451 15.5958 39.9334 15.2222 39.7422 14.9402C39.5329 14.6315 39.2198 14.4267 38.8212 14.4267H36.656C36.4826 14.4267 36.3176 14.4855 36.1829 14.5999C36.0574 14.7064 35.9817 14.8406 35.9342 14.9616C35.8424 15.1954 35.8141 15.4889 35.8141 15.7973C35.8141 15.9567 35.8329 16.1555 35.8644 16.3834L35.868 16.4096L35.8744 16.4352L40.6597 35.7489C40.9661 37.0779 41.1018 37.881 41.1018 38.2208C41.1018 39.1991 40.9294 39.9957 40.6086 40.6306Z" fill="#222222" stroke="#222222"/>
</svg>
