<svg width="151" height="40" viewBox="0 0 151 40" fill="none" xmlns="http://www.w3.org/2000/svg">
<g clip-path="url(#clip0)">
<path d="M89.6028 17.1428H93.5915V31.4285H89.6028V29.5713C88.1783 31.7142 86.3264 31.857 85.1868 31.857C80.7708 31.857 77.9217 28.4285 77.9217 24.2856C77.9217 19.9999 80.7708 16.7142 84.9019 16.7142C86.0415 16.7142 88.1783 16.857 89.4604 18.9999V17.1428H89.6028ZM82.1953 24.2856C82.1953 26.5713 83.7623 28.2856 86.184 28.2856C88.4632 28.2856 90.1726 26.5713 90.1726 24.2856C90.1726 21.9999 88.6057 20.2856 86.184 20.2856C83.9047 20.2856 82.1953 21.9999 82.1953 24.2856ZM101.426 20.5713V31.4285H97.4377V20.5713H95.8708V17.1428H97.4377V12.2856H101.426V17.1428H104.133V20.5713H101.426ZM113.535 20.5713C112.538 19.7142 111.683 19.5713 111.256 19.5713C110.258 19.5713 109.689 19.9999 109.689 20.7142C109.689 21.1428 109.831 21.5713 110.971 21.9999L111.968 22.2856C113.108 22.7142 114.817 23.1428 115.529 24.2856C115.957 24.857 116.242 25.7142 116.242 26.7142C116.242 27.9999 115.814 29.2856 114.675 30.2856C113.535 31.2856 112.11 31.857 110.401 31.857C107.409 31.857 105.842 30.4285 104.845 29.4285L106.982 26.9999C107.837 27.857 108.976 28.7142 110.116 28.7142C111.256 28.7142 112.11 28.1428 112.11 27.1428C112.11 26.2856 111.398 25.857 110.828 25.7142L109.974 25.4285C108.976 24.9999 107.837 24.5713 106.982 23.7142C106.27 22.9999 105.842 22.1428 105.842 20.9999C105.842 19.5713 106.555 18.4285 107.267 17.7142C108.407 16.857 109.831 16.7142 110.971 16.7142C111.968 16.7142 113.677 16.857 115.529 18.2856L113.535 20.5713ZM122.225 18.9999C123.649 16.9999 125.643 16.7142 126.783 16.7142C130.914 16.7142 133.763 19.9999 133.763 24.2856C133.763 28.5713 130.914 31.857 126.641 31.857C125.786 31.857 123.649 31.7142 122.082 29.5713V31.4285H118.236V7.42847H122.225V18.9999ZM121.797 24.2856C121.797 26.5713 123.364 28.2856 125.786 28.2856C128.065 28.2856 129.775 26.5713 129.775 24.2856C129.775 21.9999 128.208 20.2856 125.786 20.2856C123.364 20.2856 121.797 21.9999 121.797 24.2856ZM140.316 29.2856L133.478 17.1428H138.179L142.595 25.2856L146.584 17.1428H151.142L139.746 38.9999H135.188L140.316 29.2856ZM76.9245 19.5713H66.9528V23.5713H72.2236C71.3689 26.2856 69.3745 28.1428 65.6708 28.1428C61.5396 28.1428 58.5481 24.7142 58.5481 20.5713C58.5481 16.4285 61.3972 12.857 65.5283 12.857C67.8076 12.857 70.0868 13.9999 71.5113 15.857L74.7877 13.7142C72.6509 10.7142 69.2321 8.9999 65.5283 8.9999C59.2604 8.9999 54.1321 14.1428 54.1321 20.5713C54.1321 26.9999 58.9755 32.1428 65.5283 32.1428C72.0811 32.1428 76.9245 26.9999 76.9245 20.5713C77.067 20.1428 76.9245 19.857 76.9245 19.5713Z" fill="black"/>
<path d="M35.6132 19.9999H25.6415V22.8571H32.4792C31.482 27.1428 28.3481 30.7142 24.217 32.1428L7.83488 15.7142C9.54431 10.7142 14.3877 7.14279 19.9434 7.14279C24.217 7.14279 28.0632 9.28565 30.4849 12.5714L32.6217 10.7142C29.7726 6.85707 25.2141 4.28564 19.9434 4.28564C12.5358 4.28564 6.2679 9.57136 4.70092 16.5714L23.5047 35.4285C30.3424 33.7142 35.6132 27.4285 35.6132 19.9999ZM4.27356 20.1428C4.27356 24.1428 5.84054 27.9999 8.83205 30.9999C11.8236 33.9999 15.8122 35.5714 19.6585 35.5714L4.27356 20.1428Z" fill="white"/>
<path d="M19.9434 0C8.97453 0 0 9 0 20C0 31 8.97453 40 19.9434 40C30.9123 40 39.8868 31 39.8868 20C39.8868 9 30.9123 0 19.9434 0ZM8.83208 31.1429C5.84057 28.1429 4.27358 24.1429 4.27358 20.2857L19.8009 35.7143C15.8123 35.5714 11.8236 34.1429 8.83208 31.1429ZM23.3623 35.2857L4.70094 16.5714C6.26792 9.57143 12.5358 4.28571 19.9434 4.28571C25.2141 4.28571 29.7726 6.85714 32.6217 10.7143L30.4849 12.5714C28.0632 9.28572 24.217 7.14286 19.9434 7.14286C14.3877 7.14286 9.68679 10.7143 7.83491 15.7143L24.217 32.1429C28.3481 30.7143 31.4821 27.1429 32.4792 22.8571H25.6415V20H35.6132C35.6132 27.4286 30.3425 33.7143 23.3623 35.2857Z" fill="#663399"/>
</g>
<defs>
<clipPath id="clip0">
<rect width="151" height="40" fill="white"/>
</clipPath>
</defs>
</svg>
