<svg width="123" height="50" viewBox="0 0 123 50" fill="none" xmlns="http://www.w3.org/2000/svg">
<path opacity="0.1" d="M110.169 1.03825C110.145 1.13366 110.145 1.22907 110.169 1.32448C110.169 1.32448 110.48 3.35316 110.121 4.2599L95.3747 42.5161C94.3214 45.3322 95.7337 48.4584 98.5586 49.5326C101.383 50.6062 104.52 49.2222 105.645 46.43L120.391 8.17381C120.679 7.43397 122.33 5.97821 122.33 5.97821C122.402 5.90648 122.474 5.83498 122.522 5.76349V5.73957C122.522 5.71566 122.546 5.71566 122.546 5.69175C122.929 4.71351 120.463 2.85197 117.064 1.53945C113.664 0.226682 110.576 -0.0358705 110.193 0.966517C110.193 0.966517 110.169 0.990429 110.169 1.03825Z" fill="black"/>
<path d="M109.738 0.704046C109.714 0.799693 109.714 0.895102 109.738 0.99051C109.738 0.99051 110.05 3.01896 109.69 3.92594L94.9439 42.1821C93.8909 44.9982 95.3032 48.1245 98.1281 49.1984C100.953 50.2722 104.089 48.8882 105.214 46.096L119.961 7.83984C120.248 7.1 121.9 5.64425 121.9 5.64425C121.972 5.57251 122.044 5.50101 122.092 5.42952V5.40561C122.092 5.38169 122.116 5.38169 122.116 5.35778C122.499 4.37931 120.033 2.518 116.633 1.20524C113.234 -0.107286 110.145 -0.369838 109.762 0.632549C109.762 0.656461 109.762 0.680373 109.738 0.704285V0.704046Z" fill="url(#paint0_linear)"/>
<path d="M114.383 18.0066L103.73 45.595C102.94 47.5758 100.665 48.6019 98.6305 47.8145C96.5955 47.0268 95.5183 44.7119 96.2607 42.731L103.059 25.0946C103.059 25.0946 103.897 23.7342 105.573 22.756C107.249 21.7773 108.613 21.992 110.457 21.1807C112.324 20.3693 114.383 18.0066 114.383 18.0066Z" fill="url(#paint1_linear)"/>
<path d="M119.549 4.55991C119.761 4.00779 118.233 2.90617 116.137 2.09938C114.041 1.29259 112.17 1.08599 111.958 1.63788C111.745 2.19 113.273 3.29139 115.369 4.09841C117.465 4.9052 119.337 5.1118 119.549 4.55991Z" fill="#333333"/>
<path opacity="0.3" d="M109.639 0.987549C109.639 0.987549 109.948 3.0105 109.591 3.91485L94.9412 42.0632C93.895 44.8712 95.2981 47.9888 98.1045 49.0598C98.5802 49.2502 99.0796 49.369 99.5789 49.3929C98.6402 48.6784 97.9558 47.6827 97.6262 46.552C97.2966 45.4213 97.3392 44.2151 97.7476 43.1103L112.113 5.72354C112.113 5.72354 110.139 3.89093 109.639 0.987549Z" fill="white"/>
<g opacity="0.5">
<path opacity="0.5" d="M104.93 26.0233C105.167 26.0233 105.358 25.8315 105.358 25.595C105.358 25.3585 105.167 25.1667 104.93 25.1667C104.694 25.1667 104.502 25.3585 104.502 25.595C104.502 25.8315 104.694 26.0233 104.93 26.0233Z" fill="white"/>
<path opacity="0.5" d="M107.713 29.3075C108.068 29.3075 108.355 29.0198 108.355 28.665C108.355 28.3101 108.068 28.0225 107.713 28.0225C107.358 28.0225 107.071 28.3101 107.071 28.665C107.071 29.0198 107.358 29.3075 107.713 29.3075Z" fill="white"/>
<path opacity="0.5" d="M103.456 33.5435C104.126 33.5435 104.669 33.0001 104.669 32.3297C104.669 31.6594 104.126 31.116 103.456 31.116C102.786 31.116 102.243 31.6594 102.243 32.3297C102.243 33.0001 102.786 33.5435 103.456 33.5435Z" fill="white"/>
<path opacity="0.5" d="M101.506 35.2094C101.86 35.2094 102.148 34.9217 102.148 34.5668C102.148 34.212 101.86 33.9243 101.506 33.9243C101.151 33.9243 100.863 34.212 100.863 34.5668C100.863 34.9217 101.151 35.2094 101.506 35.2094Z" fill="white"/>
<path opacity="0.5" d="M104.05 39.7547C104.287 39.7547 104.478 39.563 104.478 39.3264C104.478 39.0899 104.287 38.8982 104.05 38.8982C103.814 38.8982 103.622 39.0899 103.622 39.3264C103.622 39.563 103.814 39.7547 104.05 39.7547Z" fill="white"/>
</g>
<path opacity="0.1" d="M28.895 23.239C29.5412 23.7627 30.7144 23.4533 31.5042 22.5965C32.3423 21.6922 32.462 20.5262 31.8156 20.0025C31.1691 19.4789 29.9962 19.7883 29.2061 20.6926C28.3683 21.597 28.2246 22.7395 28.895 23.2393V23.239ZM26.956 24.9286C26.7881 24.9286 26.477 25.2381 26.7403 25.3571C27.0994 25.476 27.2671 25.7854 27.2671 26.2139C26.956 27.9987 24.7293 30.0216 23.8677 30.7117C23.6521 30.9257 23.9634 31.4018 24.1788 31.2354C24.6576 30.8545 25.6631 30.0692 26.477 29.0221C25.1364 31.9968 22.5032 35.8521 21.4977 37.2086C17.5716 42.6108 11.6106 47.5844 7.51707 47.5844C4.2372 47.5844 1.46055 45.3712 0.861859 42.1349C0.813886 41.7777 0.335122 41.7064 0.430827 42.1823C1.17296 46.6325 4.62026 48.3697 8.7857 48.3697C13.3582 48.3697 18.7208 45.0857 21.6891 41.7064C26.477 36.2567 29.5652 29.9738 28.7513 26.4279C28.4162 25.1192 27.4825 24.9047 26.956 24.9286ZM56.3774 36.804C57.6463 36.4946 58.6756 35.8045 58.6756 34.7098C58.6756 34.5907 58.4602 34.5907 58.4602 34.7098C58.4602 35.3523 57.718 35.8997 56.8802 36.0187C54.9172 36.3279 51.0388 34.0434 49.2195 31.6873C51.1825 32.425 55.1805 31.3542 57.0716 29.9977C58.8192 28.7364 59.5134 27.3562 59.6333 26.2376C59.8487 24.3813 57.8137 23.2868 54.9649 24.3813C53.1455 25.1192 50.9671 26.7137 48.693 29.7122C51.0868 25.7854 55.803 19.36 60.4232 15.2668C66.0489 10.2931 69.3048 11.2448 64.2536 16.5281C62.1708 18.6936 58.2448 21.5018 55.5394 22.7156C54.7018 23.0726 55.1086 23.5484 55.7073 23.2866C58.5799 22.0255 62.4102 19.4313 64.7323 17.2656C71.5789 10.7214 65.8573 5.79504 58.2925 12.7204C53.1455 17.4323 49.7942 22.3586 46.8734 28.7603C45.8681 29.9738 45.126 30.9733 44.2162 31.7349C44.0963 31.8301 44.0248 31.9253 43.9528 32.0207C41.4391 34.1625 37.4893 37.0658 35.0235 37.0895C33.2759 37.1373 32.5337 35.8282 32.8451 34.1388C33.3238 31.497 36.0767 28.3794 38.4228 27.3086C41.4631 25.9282 43.2584 28.6175 39.2606 30.7591C37.7286 31.5446 35.9093 31.9728 35.1672 31.9728C34.3053 31.9728 34.3771 32.3299 35.1192 32.3538C36.3401 32.4013 38.3031 31.8779 39.596 31.2827C43.6895 29.3315 43.9528 25.6902 39.5 25.5714C34.6644 25.4047 28.871 29.498 28.919 34.6622C28.967 36.9943 30.8341 38.2557 33.3955 38.2557C37.6807 38.2079 41.487 34.9714 44.6232 32.1158C45.078 31.7349 45.5088 31.3303 45.9398 30.9021C44.8386 33.6627 44.2879 36.2328 44.5513 38.1366C44.7189 39.5171 45.5088 40.1596 46.1313 40.6832C46.2512 40.7782 46.5143 40.6832 46.3469 40.4212C45.4371 39.3504 45.7005 36.1376 46.9454 33.0202C47.9986 35.1144 52.0923 37.7559 56.3774 36.804ZM51.2305 27.7844C56.234 23.3344 58.1968 27.3086 55.0129 29.7359C53.3609 30.9972 50.0813 31.9492 49.0521 31.3303L48.8364 31.2115C48.7167 30.9972 48.5731 30.783 48.4773 30.569C49.3152 29.5455 50.273 28.6412 51.2305 27.7844ZM79.048 22.7156C81.059 22.9296 80.2209 20.5023 78.1862 21.1211C77.2766 21.3827 76.3908 23.1202 75.7444 24.6195C73.7336 27.5941 70.382 31.6637 68.0359 33.8055C65.9532 35.5902 64.0382 36.0663 66.384 32.7344C67.3418 31.4018 68.5627 29.9738 69.2568 28.546C70.9088 24.9525 67.3895 23.3581 64.5407 25.5236C62.889 26.7849 60.6626 29.3789 58.9149 30.8069C58.4362 31.1876 58.5559 31.7586 59.0349 31.3779C60.4232 30.2596 62.865 27.6893 64.9717 26.19C66.7193 24.8574 67.4135 25.7141 66.408 26.8325C65.0197 28.427 62.5776 31.2115 61.9554 32.9724C61.0936 35.6142 62.1229 36.7801 63.8705 36.7801C66.2643 36.7801 69.8313 33.0678 72.2254 30.1168C73.0152 29.1173 73.8771 27.9511 74.6192 26.8325C72.5365 30.8545 70.358 34.9238 67.6529 38.6127C63.8225 43.8006 59.0346 47.7035 54.4861 47.7035C51.2065 47.7035 48.3816 45.4902 47.7832 42.2538C47.7352 41.8968 47.3044 41.8253 47.3522 42.3014C48.0943 46.7514 51.5416 48.4888 55.707 48.4888C60.2795 48.4888 64.6843 45.8473 67.7726 42.6108C73.997 36.0661 74.7389 28.7127 76.6542 24.5955C77.5637 22.7156 78.3778 22.6443 79.048 22.7156ZM104.376 16.4325C105.286 14.8856 105.238 13.6721 103.107 13.6721C101.503 13.7197 98.5826 14.838 97.218 15.8852C96.9069 16.1946 97.0506 16.361 97.4337 16.1946C97.6968 16.0994 98.0081 15.9327 98.2955 15.8139C99.8275 14.9808 99.205 16.7182 98.87 17.3608C97.0506 20.526 93.8187 24.976 92.119 27.1893C91.3122 28.2717 90.4408 29.3048 89.5096 30.283C87.8816 31.8301 84.65 34.5668 82.1842 35.4709C74.2601 38.4219 84.3626 24.9999 85.2005 23.9052C87.0678 21.5731 91.257 17.5035 92.5258 15.4569C93.4356 13.9098 93.3879 12.6963 91.257 12.6963C89.6533 12.7441 86.7327 13.8624 85.3681 14.9095C85.0568 15.219 85.2005 15.3854 85.5835 15.219C85.8469 15.1238 86.158 14.9571 86.4453 14.838C87.9776 14.0052 87.3551 15.7424 87.0198 16.3851C85.2005 19.5501 81.9688 24.0004 80.2689 26.2137C78.8806 28.0699 77.1809 29.926 75.8641 30.9731C75.3376 31.4016 75.6487 31.8062 76.1754 31.4492C76.6542 31.1398 77.3483 30.4497 78.1384 29.6405C76.7019 32.4963 75.529 36.5183 79.3114 36.9941C82.5433 37.4224 86.3736 34.1622 88.8632 31.7347L89.749 30.8542L89.9644 30.64C88.5281 33.4958 87.3551 37.5178 91.1373 37.9936C95.279 38.5649 100.426 33.0199 102.413 30.9731C102.796 30.5924 102.676 29.926 102.03 30.5924C100.857 31.8062 96.8829 35.3997 94.0104 36.4704C86.0863 39.4214 96.1888 25.9994 97.0266 24.9047C98.9179 22.525 103.107 18.4554 104.376 16.4327V16.4325Z" fill="black"/>
<path d="M28.4639 22.8345C29.1104 23.3582 30.2833 23.0487 31.0734 22.192C31.9112 21.2876 32.0309 20.1217 31.3845 19.598C30.7383 19.0743 29.5651 19.3838 28.7753 20.2881C27.9374 21.1925 27.8175 22.3111 28.4639 22.8347V22.8345ZM26.5489 24.5243C26.3812 24.5243 26.0701 24.8335 26.3335 24.9526C26.6926 25.0717 26.86 25.3809 26.86 25.8094C26.5489 27.5941 24.3222 29.6171 23.4607 30.3072C23.2453 30.5214 23.5566 30.9973 23.7718 30.8309C24.2508 30.4499 25.256 29.6647 26.0701 28.6176C24.7293 31.5922 22.0961 35.4475 21.0906 36.8041C17.1645 42.2062 11.2035 47.1799 7.10998 47.1799C3.83034 47.1799 1.05346 44.9666 0.454764 41.7304C0.406792 41.3731 -0.071733 41.3019 0.0239719 41.7777C0.766105 46.228 4.2134 47.9652 8.37885 47.9652C12.9513 47.9652 18.3137 44.6811 21.2822 41.3019C26.0699 35.8521 29.1583 29.5695 28.3442 26.0236C27.9852 24.6908 27.0754 24.4765 26.5489 24.5243ZM55.9464 36.3995C57.2152 36.09 58.2447 35.4 58.2447 34.3053C58.2447 34.1862 58.0291 34.1862 58.0291 34.3053C58.0291 34.9478 57.2872 35.4951 56.4491 35.6142C54.4861 35.9234 50.608 33.6391 48.7886 31.2828C50.7517 32.0207 54.7495 30.9497 56.6408 29.5932C58.3884 28.3318 59.0826 26.9516 59.2022 25.833C59.4176 23.9768 57.3829 22.8823 54.5341 23.9768C52.7147 24.7147 50.536 26.3091 48.2619 29.3077C50.6557 25.3809 55.3719 18.9555 59.9924 14.8623C65.6181 9.88857 68.8737 10.8403 63.8225 16.1236C61.7397 18.2891 57.8139 21.0973 55.1085 22.311C54.2707 22.6681 54.6777 23.1439 55.2762 22.8821C58.149 21.621 61.9791 19.027 64.3012 16.861C71.1481 10.3168 65.4264 5.3905 57.8617 12.3159C52.7147 17.004 49.3633 21.954 46.4425 28.3557C45.437 29.5695 44.6949 30.569 43.7851 31.3304C43.6654 31.4256 43.5937 31.521 43.522 31.6161C41.0082 33.7579 37.0582 36.6613 34.5924 36.685C32.845 36.7328 32.1026 35.4236 32.414 33.7342C32.8927 31.0925 35.6459 27.9748 37.992 26.9041C41.0322 25.5239 42.8276 28.213 38.8298 30.3545C37.2976 31.14 35.4782 31.5685 34.7361 31.5685C33.8743 31.5685 33.9462 31.9253 34.6881 31.9492C35.909 31.9968 37.8723 31.4734 39.1649 30.8782C43.2586 28.927 43.522 25.2857 39.069 25.1668C34.2333 25.0002 28.4399 29.0934 28.4879 34.2577C28.5359 36.5898 30.403 37.8512 32.9647 37.8512C37.2498 37.8033 41.0562 34.5671 44.1922 31.7113C44.6469 31.3304 45.078 30.9258 45.509 30.4975C44.4076 33.2582 43.8571 35.8282 44.1202 37.7321C44.2881 39.1125 45.078 39.755 45.7004 40.2787C45.8201 40.3736 46.0835 40.2787 45.9158 40.0169C45.0063 38.9459 45.2694 35.733 46.5143 32.6157C47.5915 34.7099 51.6852 37.3514 55.9464 36.3995ZM50.7994 27.356C55.8029 22.906 57.766 26.8801 54.582 29.3077C52.9301 30.569 49.6505 31.521 48.621 30.9021L48.4056 30.783C48.2856 30.569 48.1422 30.3548 48.0465 30.1405C48.8843 29.141 49.8419 28.213 50.7994 27.3562V27.356ZM78.6172 22.3113C80.6279 22.5255 79.7901 20.098 77.7553 20.7168C76.8455 20.9784 75.9597 22.7159 75.3135 24.2152C73.3025 27.1898 69.951 31.2594 67.6051 33.4012C65.5221 35.1859 63.6071 35.662 65.9532 32.3301C66.9107 30.9975 68.1316 29.5697 68.826 28.1417C70.4777 24.5482 66.9587 22.9538 64.1098 25.1193C62.4579 26.3806 60.2317 28.9746 58.4841 30.4026C58.0053 30.7833 58.125 31.3543 58.6038 30.9736C59.9924 29.8553 62.4342 27.285 64.5406 25.7857C66.2883 24.4531 66.9824 25.3098 65.9771 26.4282C64.5886 28.0229 62.1468 30.8072 61.5244 32.5683C60.6625 35.2099 61.692 36.3758 63.4394 36.3758C65.8332 36.3758 69.4005 32.6635 71.7943 29.7125C72.5844 28.713 73.4462 27.5468 74.1881 26.4282C72.1056 30.4502 69.9272 34.5198 67.222 38.2084C63.3914 43.3963 58.6038 47.2992 54.0553 47.2992C50.7757 47.2992 47.9508 45.0859 47.3521 41.8495C47.3041 41.4925 46.8733 41.421 46.9213 41.8971C47.6634 46.3471 51.1107 48.0845 55.2762 48.0845C59.8487 48.0845 64.2535 45.443 67.3417 42.2065C73.5659 35.6618 74.308 28.3084 76.2231 24.1912C77.1329 22.3113 77.9707 22.2161 78.6169 22.3113H78.6172ZM103.945 16.0045C104.855 14.4577 104.807 13.2439 102.676 13.2439C101.072 13.2917 98.1518 14.4101 96.7872 15.4572C96.4758 15.7666 96.6195 15.933 97.0026 15.7666C97.266 15.6714 97.5771 15.5048 97.8644 15.3857C99.3966 14.5528 98.7742 16.29 98.4389 16.9328C96.6195 20.0978 93.3879 24.548 91.688 26.7613C90.8812 27.8437 90.0099 28.8768 89.0787 29.855C87.4508 31.4019 84.2191 34.1386 81.7534 35.0429C73.8293 37.9939 83.9318 24.5719 84.7696 23.477C86.6369 21.1449 90.8261 17.0755 92.095 15.0289C93.0048 13.4818 92.9568 12.2683 90.8261 12.2683C89.2222 12.3159 86.3016 13.4342 84.937 14.4813C84.6259 14.7908 84.7696 14.9574 85.1527 14.7908C85.4158 14.6956 85.7271 14.5292 86.0145 14.4101C87.5465 13.5772 86.9241 15.3144 86.589 15.9569C84.7696 19.1222 81.5377 23.5724 79.8381 25.7854C78.4495 27.6417 76.7498 29.498 75.4332 30.5451C74.9065 30.9734 75.2178 31.378 75.7443 31.021C76.2231 30.7118 76.9173 30.0214 77.7074 29.2125C76.2711 32.0683 75.0979 36.0901 78.8803 36.5661C82.1122 36.9944 85.9425 33.734 88.4323 31.3067L89.3181 30.426L89.5335 30.212C88.0972 33.0678 86.9241 37.0896 90.7065 37.5657C94.8481 38.1367 99.9951 32.592 101.982 30.5451C102.365 30.1644 102.245 29.498 101.599 30.1644C100.426 31.378 96.4521 34.9715 93.5793 36.0425C85.6554 38.9934 95.7577 25.5714 96.5955 24.4765C98.5108 22.0968 102.676 18.0275 103.945 16.0045H103.945Z" fill="url(#paint2_linear)"/>
<defs>
<linearGradient id="paint0_linear" x1="101.199" y1="22.8321" x2="113.934" y2="24.343" gradientUnits="userSpaceOnUse">
<stop stop-color="#919191"/>
<stop offset="1" stop-color="white"/>
</linearGradient>
<linearGradient id="paint1_linear" x1="100.877" y1="30.7522" x2="108.601" y2="31.8554" gradientUnits="userSpaceOnUse">
<stop stop-color="#990000"/>
<stop offset="1" stop-color="#E80000"/>
</linearGradient>
<linearGradient id="paint2_linear" x1="52.2586" y1="48.0149" x2="52.2586" y2="8.9425" gradientUnits="userSpaceOnUse">
<stop stop-color="#1A1A1A"/>
<stop offset="0.4026" stop-color="#4A4A4C"/>
<stop offset="1" stop-color="#333333"/>
</linearGradient>
</defs>
</svg>
