<svg width="105" height="65" viewBox="0 0 105 65" fill="none" xmlns="http://www.w3.org/2000/svg">
<path d="M24.8258 16.8422H44.5875V18.4328H26.6373V30.4035H43.5171V31.9941H26.6373V45.1368H44.7934V46.7273H24.8258V16.8422ZM46.3579 16.8422H48.4576L57.7621 29.985L67.2724 16.8422L80.2081 0.147949L58.956 31.3662L69.9073 46.7273H67.7253L57.7621 32.7475L47.7577 46.7273H45.6168L56.6505 31.3662L46.3579 16.8422ZM70.6896 18.4328V16.8422H93.2098V18.4328H82.8348V46.7273H81.0233V18.4328H70.6896Z" fill="black"/>
<path d="M0.102936 16.8423H2.36731L33.5917 64.1564L20.6881 46.7274L1.99677 19.1025L1.91443 46.7274H0.102936V16.8423Z" fill="black"/>
<path d="M93.0273 44.6568C93.4018 44.6568 93.675 44.3664 93.675 43.9912C93.675 43.6159 93.4018 43.3255 93.0273 43.3255C92.6572 43.3255 92.3796 43.6159 92.3796 43.9912C92.3796 44.3664 92.6572 44.6568 93.0273 44.6568ZM94.8073 42.9056C94.8073 44.0135 95.596 44.7372 96.7459 44.7372C97.9708 44.7372 98.711 43.9912 98.711 42.6956V38.1344H97.724V42.6911C97.724 43.4104 97.3672 43.7946 96.7371 43.7946C96.1731 43.7946 95.7898 43.4372 95.7766 42.9056H94.8073ZM100.002 42.8475C100.072 44.0001 101.02 44.7372 102.43 44.7372C103.936 44.7372 104.879 43.9644 104.879 42.7314C104.879 41.7619 104.342 41.2258 103.038 40.9176L102.337 40.7434C101.509 40.5468 101.174 40.2832 101.174 39.8231C101.174 39.2423 101.694 38.8626 102.474 38.8626C103.214 38.8626 103.725 39.2334 103.817 39.8275H104.778C104.721 38.742 103.778 37.978 102.487 37.978C101.099 37.978 100.174 38.742 100.174 39.8901C100.174 40.8372 100.698 41.4001 101.848 41.6726L102.668 41.8736C103.509 42.0746 103.879 42.3695 103.879 42.8609C103.879 43.4327 103.298 43.8482 102.505 43.8482C101.654 43.8482 101.064 43.4595 100.98 42.8475H100.002Z" fill="black"/>
</svg>
