<svg width="159" height="28" viewBox="0 0 159 28" fill="none" xmlns="http://www.w3.org/2000/svg">
<path fill-rule="evenodd" clip-rule="evenodd" d="M21.2734 1.04697C21.5851 1.37166 21.7525 1.80834 21.7375 2.25801V25.5407C21.7505 26.0392 21.5638 26.5222 21.2188 26.8826C20.8739 27.2441 20.3916 27.4424 19.892 27.4282C19.6119 27.4286 19.3336 27.3844 19.0675 27.2972C18.8238 27.2222 18.605 27.0827 18.4341 26.8935L3.33704 7.25495V25.7425C3.3508 26.1936 3.17747 26.6304 2.85803 26.9496C2.5386 27.2687 2.10142 27.4419 1.64987 27.4282C1.2027 27.4453 0.769538 27.2706 0.459579 26.9481C0.15121 26.6239 -0.0140199 26.1895 0.000933389 25.7425V2.41076C-0.0103954 1.91368 0.18771 1.4347 0.546941 1.09061C0.883141 0.745969 1.34859 0.557979 1.83006 0.572369C2.13309 0.570907 2.43351 0.628344 2.71459 0.741479C2.97035 0.840376 3.19477 1.00619 3.36434 1.22153L18.3959 20.9038V2.25801C18.3822 1.80688 18.5555 1.37009 18.8749 1.05094C19.1944 0.731794 19.6315 0.558619 20.0831 0.572369C20.5291 0.55591 20.9613 0.728247 21.2734 1.04697Z" fill="#2E495E"/>
<path fill-rule="evenodd" clip-rule="evenodd" d="M52.3636 1.11213C52.6901 1.47481 52.8624 1.95027 52.8441 2.43774V17.1667C52.8753 19.0704 52.4126 20.9499 51.5009 22.6219C50.6374 24.1993 49.3544 25.5076 47.7935 26.4023C46.1761 27.3294 44.34 27.8078 42.4754 27.7879C40.594 27.8176 38.7384 27.3489 37.0972 26.4296C35.5292 25.5386 34.24 24.2298 33.3734 22.6491C32.4617 20.9771 31.999 19.0977 32.0303 17.194V2.46501C32.016 1.9658 32.2145 1.484 32.5763 1.13941C32.9446 0.77943 33.4425 0.582804 33.9577 0.593892C34.4433 0.594217 34.9082 0.791009 35.2462 1.13941C35.6041 1.47767 35.8023 1.95113 35.7923 2.44319V17.1721C35.7725 18.4296 36.0912 19.6693 36.715 20.7616C37.8914 22.8336 40.0911 24.1147 42.4754 24.1166C43.6724 24.1251 44.8508 23.8204 45.8934 23.2328C46.9452 22.6521 47.8205 21.7983 48.4269 20.7616C49.0607 19.6727 49.3854 18.4317 49.366 17.1721V2.44319C49.3483 1.95967 49.5118 1.48694 49.8246 1.11759C50.1472 0.756842 50.6129 0.557132 51.0968 0.572071C51.5773 0.561041 52.0391 0.757928 52.3636 1.11213Z" fill="#2E495E"/>
<path fill-rule="evenodd" clip-rule="evenodd" d="M82.0553 24.4848C82.2856 24.8014 82.4064 25.1844 82.3993 25.5758C82.4195 26.0697 82.2195 26.5472 81.8533 26.8796C81.5154 27.1987 81.0679 27.3763 80.6029 27.376C80.0052 27.3986 79.4387 27.1094 79.1069 26.6123L71.643 16.6566L64.3483 26.5959C64.0197 27.1012 63.4554 27.4037 62.8522 27.3978C62.4112 27.4076 61.986 27.2337 61.6783 26.9178C61.3731 26.6368 61.199 26.2414 61.1978 25.8267C61.2063 25.3648 61.3697 24.9191 61.662 24.5611L69.5354 13.8526L61.6237 3.22598C61.3767 2.91548 61.2403 2.53157 61.2361 2.13495C61.226 1.64288 61.4242 1.16942 61.7821 0.831161C62.1201 0.482762 62.585 0.285969 63.0706 0.285645C63.3569 0.287103 63.639 0.354296 63.8951 0.48203C64.1658 0.61023 64.3975 0.807887 64.5667 1.05482L71.9433 10.9559L79.2488 1.15302C79.5713 0.654278 80.1133 0.339933 80.7067 0.307465C81.1697 0.309949 81.6101 0.508137 81.9188 0.852982C82.2543 1.15244 82.4517 1.57657 82.4648 2.02584C82.4519 2.41998 82.3185 2.80072 82.0826 3.11688L74.0672 13.7763L82.0553 24.4848Z" fill="#2E495E"/>
<path fill-rule="evenodd" clip-rule="evenodd" d="M109.66 1.04724C110.021 1.37632 110.22 1.84651 110.206 2.33466C110.219 2.81626 110.019 3.27926 109.66 3.60026C109.29 3.9128 108.817 4.07622 108.333 4.05849H101.497V25.59C101.506 26.082 101.308 26.5552 100.951 26.8938C100.151 27.6066 98.9439 27.6066 98.1444 26.8938C97.7888 26.554 97.591 26.0816 97.5984 25.59V4.05849H90.7787C90.2935 4.07691 89.8199 3.90681 89.4574 3.58389C89.1063 3.24989 88.9171 2.78037 88.9387 2.29648C88.9232 1.82482 89.1123 1.36946 89.4574 1.04724C89.8199 0.724323 90.2935 0.554225 90.7787 0.572643H108.333C108.82 0.555074 109.295 0.724971 109.66 1.04724Z" fill="#2E495E"/>
<path fill-rule="evenodd" clip-rule="evenodd" d="M118.021 26.7528C116.778 26.0493 115.744 25.0291 115.024 23.7961C114.81 23.4912 114.689 23.1314 114.674 22.7596C114.674 22.2784 114.886 21.8215 115.253 21.5104C115.566 21.1836 115.992 20.9884 116.444 20.9649C117.129 21.0289 117.757 21.3771 118.174 21.925C119.028 23.328 120.561 24.1748 122.204 24.1507C123.538 24.1818 124.827 23.6698 125.775 22.7323C126.732 21.8259 127.263 20.5586 127.238 19.241V2.42276C127.232 1.92592 127.441 1.45071 127.811 1.11897C128.169 0.766905 128.652 0.57077 129.155 0.573458C129.662 0.548718 130.157 0.736544 130.52 1.0917C130.867 1.44194 131.054 1.91931 131.038 2.41185V19.2683C131.053 20.7792 130.654 22.2654 129.886 23.567C129.125 24.8641 128.032 25.9354 126.719 26.671C125.343 27.4495 123.785 27.8486 122.204 27.8275C120.739 27.843 119.297 27.4723 118.021 26.7528Z" fill="#00C48D"/>
<path fill-rule="evenodd" clip-rule="evenodd" d="M144.468 26.8573C142.946 26.2802 141.55 25.4152 140.357 24.3098C139.864 23.9324 139.569 23.3529 139.554 22.7332C139.56 22.2619 139.757 21.8131 140.1 21.4895C140.427 21.1379 140.887 20.9399 141.367 20.9439C141.771 20.9384 142.162 21.0888 142.459 21.364C143.381 22.2437 144.454 22.9513 145.626 23.4533C146.804 23.9216 148.065 24.1516 149.333 24.1298C150.778 24.1754 152.203 23.7858 153.423 23.0115C154.438 22.4416 155.074 21.3762 155.093 20.213C155.112 18.9633 154.479 17.7938 153.423 17.1253C151.889 16.2255 150.206 15.6084 148.454 15.3033C145.811 14.7578 143.786 13.8795 142.36 12.6521C140.935 11.4247 140.231 9.72267 140.231 7.55152C140.201 6.12564 140.621 4.72653 141.432 3.55288C142.257 2.38785 143.392 1.47696 144.708 0.92349C146.214 0.288888 147.836 -0.0251001 149.469 0.00156685C151.001 -0.0081566 152.522 0.252229 153.963 0.770745C155.234 1.19901 156.399 1.89263 157.381 2.80552C157.906 3.19189 158.23 3.79204 158.266 4.44207C158.266 4.90438 158.079 5.34705 157.747 5.66948C157.429 6.02434 156.973 6.22349 156.497 6.215C156.175 6.22736 155.86 6.1161 155.617 5.90406C154.821 5.15754 153.878 4.58365 152.849 4.21841C151.783 3.78905 150.646 3.5633 149.497 3.55288C148.057 3.47892 146.63 3.84833 145.407 4.61118C144.458 5.2397 143.887 6.30182 143.887 7.43968C143.887 8.57755 144.458 9.63967 145.407 10.2682C146.806 11.083 148.333 11.6548 149.923 11.9593C151.611 12.2913 153.259 12.8053 154.837 13.4922C156.027 14.0182 157.046 14.8691 157.774 15.947C158.512 17.1861 158.871 18.6142 158.806 20.0548C158.828 21.4708 158.391 22.856 157.561 24.0043C156.688 25.1884 155.514 26.1171 154.16 26.6937C152.671 27.3444 151.061 27.6717 149.437 27.6538C147.746 27.6852 146.064 27.4155 144.468 26.8573Z" fill="#00C48D"/>
</svg>
