<svg id="Layer_1" data-name="Layer 1" xmlns="http://www.w3.org/2000/svg" viewBox="0 0 1249.98 1249.98"><rect x="25" y="25" width="1199.98" height="1199.98" style="fill:none;stroke:#000000;stroke-miterlimit:10;stroke-width:50px"/><path d="M171.89,489.56H95.38V127.21H230.6V212.4H171.89v52.8h54.68v81.91H171.89Z" transform="translate(24 24)" style="fill:#000000"/><path d="M461.79,489.56H379l-37.8-129.08c-.37-2.18-1-5.08-1.93-8.68s-2.05-7.9-3.39-12.91l.55,23.94V489.56H260.33V127.21h78.34q51.75,0,77.43,26.05,32.65,33.32,32.66,94.81,0,65.71-43.85,90.82ZM336.84,295H342q13.21,0,22-12.91t8.81-32.86q0-40.59-33.21-40.6h-2.75Z" transform="translate(24 24)" style="fill:#000000"/><path d="M691.68,309.56q0,82.85-29.54,134.71-29.35,51.63-76.51,51.63-41.82,0-71.74-39.66Q476.29,406,476.28,305.57q0-96.23,39.26-147.15,29.18-37.78,69.18-37.79,49,0,78,51.17T691.68,309.56Zm-79.44.7q0-98.32-27.16-98.33-13.58,0-21.65,25.81-7.89,23.94-7.89,70.41,0,45.77,7.43,71t20.65,25.23q13.57,0,20.91-24.88Q612.24,354.62,612.24,310.26Z" transform="translate(24 24)" style="fill:#000000"/><path d="M724.34,489.56V127.21h73l38.35,127.2q3.1,11.27,7.06,25.81t8.72,33.56l7.88,31.92Q855.17,298.52,853,265t-2.2-56.33V127.21h73V489.56h-73l-38.53-133.3q-6.06-21.35-10.92-40t-8.53-35.56q2.38,38.26,3.49,66.65t1.1,49.76v92.46Z" transform="translate(24 24)" style="fill:#000000"/><path d="M1062.31,489.56H985.8V214H943.6V127.21h162.56V214h-43.85Z" transform="translate(24 24)" style="fill:#000000"/><path d="M122.7,730.59h35.82l27.36,133.72q5,25.05,9.16,50.2t7.55,52.74q.39-3.6.6-5.62a25.33,25.33,0,0,1,.4-2.87l5.84-37.56,5.23-35.66L219.29,862l24.35-131.39h36.22l28.57,327.72h-40l-7-111.22q-.41-8.49-.71-14.64c-.2-4.11-.3-7.5-.3-10.19l-1.81-43.94-1-40.33c0-.28,0-.88-.1-1.8s-.17-2.16-.3-3.72l-1,6.58q-1.61,11.69-2.91,20.38t-2.32,14.65L245.65,904l-2,11.25-26.16,143.06H189.3L164.75,934.78q-5-24.4-8.95-49.56t-7.14-52.75l-12.08,225.84H97.14Z" transform="translate(24 24)" style="fill:#000000"/><path d="M395.56,730.59h32.6l66.6,327.72H453.31l-11.67-63.89H380.06l-11.87,63.89H327.94Zm40,229.66L426.35,908q-9.27-53.28-15.1-113.77Q408.43,823.78,404,854t-10.46,64.2l-7.65,42Z" transform="translate(24 24)" style="fill:#000000"/><path d="M496.17,730.59H632.4v38.63H585.51v289.09h-41V769.22H496.17Z" transform="translate(24 24)" style="fill:#000000"/><path d="M639,730.59H775.26v38.63H728.38v289.09h-41V769.22H639Z" transform="translate(24 24)" style="fill:#000000"/><path d="M806.65,730.59H917.93V768H848.5V871.74h61.58V909.1H848.5V1021h69.43v37.35H806.65Z" transform="translate(24 24)" style="fill:#000000"/><path d="M964.61,730.59h55.13q34.21,0,50.91,17.19,21.13,22.29,21.13,68.14,0,35.24-11.16,56.56t-31.9,26.43l57.15,159.4h-42.46l-57-160.46v160.46H964.61Zm41.85,145.18q24.35,0,34.41-11.88t10.06-40.12a138.46,138.46,0,0,0-2.11-26.11q-2.11-10.81-6.64-17.61a27.08,27.08,0,0,0-11.67-10,41.58,41.58,0,0,0-17-3.18h-7Z" transform="translate(24 24)" style="fill:#000000"/></svg>