<?xml version="1.0" encoding="utf-8"?>
<!-- Generator: Adobe Illustrator 25.4.1, SVG Export Plug-In . SVG Version: 6.00 Build 0)  -->
<svg version="1.1" id="Layer_1" xmlns="http://www.w3.org/2000/svg" xmlns:xlink="http://www.w3.org/1999/xlink" x="0px" y="0px"
	 viewBox="0 0 28 28" style="enable-background:new 0 0 28 28;" xml:space="preserve">
<style type="text/css">
	.st0{fill:#FFE45E;}
	.st1{fill:none;stroke:#FFE45E;stroke-width:2;stroke-miterlimit:10;}
	.st2{font-family:'MyriadPro-Bold';}
	.st3{font-size:8px;}
</style>
<g>
	<g>
		<path class="st0" d="M4.1,10.2H2.4V2.1h3.1V4H4.1v1.2h1.2V7H4.1V10.2z"/>
		<path class="st0" d="M10.7,10.2H8.9L8,7.3c0-0.1,0-0.1,0-0.2C7.9,7.1,7.9,7,7.8,6.8v0.6v2.9H6.1V2.1h1.8c0.8,0,1.3,0.2,1.8,0.6
			c0.5,0.5,0.8,1.2,0.8,2.1c0,1-0.4,1.6-1.1,2L10.7,10.2z M7.9,5.8L7.9,5.8c0.3,0,0.5-0.1,0.6-0.3S8.7,5,8.7,4.8c0-0.6-0.3-1-0.8-1
			l0,0V5.8z"/>
		<path class="st0" d="M16.1,6.2c0,1.2-0.2,2.3-0.7,3.1s-1.1,1.2-1.7,1.2s-1.2-0.3-1.6-0.9c-0.6-0.8-0.9-1.9-0.9-3.4
			s0.3-2.6,0.9-3.4C12.6,2.3,13,2,13.7,2c0.8,0,1.3,0.4,1.8,1.2C15.8,3.8,16.1,4.8,16.1,6.2z M14.3,6.2c0-1.4-0.2-2.2-0.7-2.2
			c-0.2,0-0.4,0.2-0.5,0.6c-0.1,0.4-0.2,0.9-0.2,1.6c0,0.7,0.1,1.2,0.2,1.6c0.1,0.4,0.3,0.6,0.5,0.6c0.2,0,0.4-0.2,0.5-0.6
			C14.2,7.3,14.3,6.9,14.3,6.2z"/>
		<path class="st0" d="M16.8,10.2V2.1h1.7l0.9,2.9c0.1,0.1,0.1,0.3,0.2,0.6c0.1,0.2,0.1,0.5,0.2,0.8L20,7c-0.1-0.7-0.1-1.3-0.2-1.8
			s-0.1-1-0.1-1.2V2.1h1.7v8.2h-1.6l-0.9-3c-0.1-0.3-0.2-0.6-0.3-0.9c-0.1-0.3-0.1-0.6-0.2-0.8c0,0.6,0.1,1.1,0.1,1.5
			c0,0.4,0,0.8,0,1.2v2.1h-1.7V10.2z"/>
		<path class="st0" d="M24.6,10.2h-1.7V4h-1V2.1h3.7V4h-1.1V10.2z"/>
	</g>
</g>
<rect class="st1" width="28" height="28"/>
<g>
	<g>
		<path class="st0" d="M3.1,11.6H4l0.6,3c0.1,0.4,0.2,0.8,0.2,1.2C4.9,16.2,4.9,16.6,5,17c0-0.1,0-0.1,0-0.1v-0.1l0.2-0.9l0.1-0.8
			l0.1-0.5l0.6-3h0.9l0.7,7.5h-1l-0.2-2.6c0-0.1,0-0.2,0-0.3c0-0.1,0-0.2,0-0.2v-1v-0.9l0,0c0,0,0,0,0-0.1v0.2c0,0.2,0,0.3-0.1,0.5
			c-0.1,0.2,0,0.2-0.1,0.3L6,15.7V16l-0.6,3.3H4.7l-0.6-2.8c-0.1-0.4-0.2-0.8-0.2-1.1c-0.1-0.4-0.1-0.8-0.2-1.2l-0.3,5.2h-1
			L3.1,11.6z"/>
		<path class="st0" d="M9.4,11.6h0.8l1.6,7.5h-1l-0.3-1.5H9l-0.3,1.5h-1L9.4,11.6z M10.4,16.8l-0.3-1.2C10,14.8,9.8,13.9,9.7,13
			c0,0.5-0.1,0.9-0.2,1.4c-0.1,0.5-0.2,1-0.3,1.5l-0.2,1L10.4,16.8L10.4,16.8z"/>
		<path class="st0" d="M11.6,11.6h3.3v0.9h-1.1v6.7h-1v-6.7h-1.2V11.6z"/>
		<path class="st0" d="M14.9,11.6h3.3v0.9h-1.1v6.7h-1v-6.7h-1.2V11.6z"/>
		<path class="st0" d="M18.8,11.6h2.7v0.9h-1.7v2.4h1.5v0.9h-1.5v2.6h1.7v0.9h-2.7V11.6z"/>
		<path class="st0" d="M22.3,11.6h1.3c0.6,0,1,0.1,1.2,0.4c0.3,0.3,0.5,0.9,0.5,1.6c0,0.5-0.1,1-0.3,1.3c-0.2,0.3-0.4,0.5-0.8,0.6
			l1.4,3.7h-1l-1.4-3.7v3.7h-1L22.3,11.6L22.3,11.6z M23.3,14.9c0.4,0,0.7-0.1,0.8-0.3c0.2-0.2,0.2-0.5,0.2-0.9c0-0.2,0-0.4-0.1-0.6
			c-0.1-0.2-0.1-0.3-0.2-0.4c-0.1-0.1-0.2-0.2-0.3-0.2s-0.3-0.1-0.4-0.1h-0.2v2.5H23.3z"/>
	</g>
</g>
<text transform="matrix(1 0 0 1 5.4457 25.9479)" class="st0 st2 st3">BETA</text>
</svg>
