<?xml version="1.0" encoding="utf-8"?>
<!-- Generator: Adobe Illustrator 25.2.0, SVG Export Plug-In . SVG Version: 6.00 Build 0)  -->
<svg version="1.1" id="Layer_1" xmlns="http://www.w3.org/2000/svg" xmlns:xlink="http://www.w3.org/1999/xlink" x="0px" y="0px"
	 viewBox="0 0 28 28" style="enable-background:new 0 0 28 28;" xml:space="preserve">
<style type="text/css">
	.st0{enable-background:new    ;}
	.st1{fill:none;stroke:#000000;stroke-width:2;stroke-miterlimit:10;}
	.st2{fill:none;}
</style>
<g class="st0">
	<path d="M4,11.4H2.2V2.9h3.2v2H4v1.2h1.3V8H4V11.4z"/>
	<path d="M10.9,11.4H9l-0.9-3c0-0.1,0-0.1,0-0.2C8,8.1,8,8,7.9,7.8l0,0.6v3H6.1V2.9H8c0.8,0,1.4,0.2,1.9,0.6
		c0.5,0.5,0.8,1.3,0.8,2.2c0,1-0.4,1.7-1.1,2.1L10.9,11.4z M8,6.8h0.1c0.2,0,0.4-0.1,0.5-0.3C8.7,6.3,8.8,6,8.8,5.7
		c0-0.6-0.3-1-0.8-1H8V6.8z"/>
	<path d="M16.5,7.2c0,1.3-0.2,2.4-0.7,3.2c-0.5,0.8-1.1,1.2-1.8,1.2c-0.7,0-1.2-0.3-1.7-0.9c-0.6-0.8-0.9-2-0.9-3.5
		c0-1.5,0.3-2.7,0.9-3.5c0.5-0.6,1-0.9,1.7-0.9c0.8,0,1.4,0.4,1.9,1.2C16.2,4.7,16.5,5.8,16.5,7.2z M14.6,7.2c0-1.5-0.2-2.3-0.7-2.3
		c-0.2,0-0.4,0.2-0.5,0.6c-0.1,0.4-0.2,0.9-0.2,1.7c0,0.7,0.1,1.3,0.2,1.7c0.1,0.4,0.3,0.6,0.5,0.6c0.2,0,0.4-0.2,0.5-0.6
		C14.5,8.4,14.6,7.9,14.6,7.2z"/>
	<path d="M17.2,11.4V2.9H19l0.9,3C20,6,20,6.2,20.1,6.5c0.1,0.2,0.1,0.5,0.2,0.8L20.5,8c-0.1-0.7-0.1-1.4-0.2-1.9s-0.1-1-0.1-1.3
		V2.9H22v8.5h-1.7l-0.9-3.1c-0.1-0.3-0.2-0.6-0.3-0.9s-0.1-0.6-0.2-0.8c0,0.6,0.1,1.1,0.1,1.6c0,0.4,0,0.8,0,1.2v2.2H17.2z"/>
	<path d="M25.3,11.4h-1.8V4.9h-1v-2h3.9v2h-1.1V11.4z"/>
</g>
<rect class="st1" width="28" height="28"/>
<g class="st0">
	<path d="M2.9,17h0.9L4.4,20c0.1,0.4,0.2,0.8,0.2,1.2c0.1,0.4,0.1,0.8,0.2,1.2c0-0.1,0-0.1,0-0.1c0,0,0-0.1,0-0.1L5,21.3l0.1-0.8
		L5.2,20l0.6-3h0.9l0.7,7.5h-1l-0.2-2.6c0-0.1,0-0.2,0-0.3s0-0.2,0-0.2l0-1l0-0.9c0,0,0,0,0,0c0,0,0,0,0-0.1l0,0.2
		c0,0.2,0,0.3-0.1,0.5s0,0.2-0.1,0.3l-0.1,0.7l0,0.3l-0.6,3.3H4.5l-0.6-2.8c-0.1-0.4-0.2-0.8-0.2-1.1c-0.1-0.4-0.1-0.8-0.2-1.2
		l-0.3,5.2h-1L2.9,17z"/>
	<path d="M9.3,17h0.8l1.6,7.5h-1L10.4,23H8.9l-0.3,1.5h-1L9.3,17z M10.3,22.2L10,21c-0.1-0.8-0.3-1.7-0.4-2.6c0,0.5-0.1,0.9-0.2,1.4
		c-0.1,0.5-0.2,1-0.3,1.5l-0.2,1H10.3z"/>
	<path d="M11.5,17h3.3v0.9h-1.1v6.7h-1v-6.7h-1.2V17z"/>
	<path d="M14.8,17h3.3v0.9H17v6.7h-1v-6.7h-1.2V17z"/>
	<path d="M18.7,17h2.7v0.9h-1.7v2.4h1.5v0.9h-1.5v2.6h1.7v0.9h-2.7V17z"/>
	<path d="M22.3,17h1.3c0.6,0,1,0.1,1.2,0.4c0.3,0.3,0.5,0.9,0.5,1.6c0,0.5-0.1,1-0.3,1.3c-0.2,0.3-0.4,0.5-0.8,0.6l1.4,3.7h-1
		l-1.4-3.7v3.7h-1V17z M23.3,20.3c0.4,0,0.7-0.1,0.8-0.3c0.2-0.2,0.2-0.5,0.2-0.9c0-0.2,0-0.4-0.1-0.6s-0.1-0.3-0.2-0.4
		s-0.2-0.2-0.3-0.2c-0.1,0-0.3-0.1-0.4-0.1h-0.2V20.3z"/>
</g>
<rect x="-33.5" y="14" class="st2" width="8.6" height="14"/>
</svg>
