<?xml version="1.0" encoding="utf-8"?>
<!-- Generator: Adobe Illustrator 25.4.1, SVG Export Plug-In . SVG Version: 6.00 Build 0)  -->
<svg version="1.1" id="Layer_1" xmlns="http://www.w3.org/2000/svg" xmlns:xlink="http://www.w3.org/1999/xlink" x="0px" y="0px"
	 viewBox="0 0 1250 1250" style="enable-background:new 0 0 1250 1250;" xml:space="preserve" width="16" height="16">
<path fill="#424242" d="M316,1082.3H119.4V151.2h347.5v218.9H316v135.7h140.5v210.5H316V1082.3z"/>
<path fill="#424242" d="M602.2,151.2H704l77.7,379.9c9.5,47.4,18.1,95,26,142.6c7.9,47.6,15,97.6,21.4,149.8c0.7-6.8,1.3-12.1,1.7-16
	c0.2-2.7,0.6-5.5,1.1-8.2l16.6-106.7l14.9-101.3l13.2-66.9l69.2-373.3h102.9l81.2,931.1h-113.6l-19.9-316c-0.8-16.1-1.4-29.9-2-41.6
	c-0.6-11.7-0.9-21.3-0.9-29L988.3,571l-2.8-114.6c0-0.8,0-2.5-0.3-5.1s-0.5-6.1-0.9-10.6l-2.8,18.7c-3,22.1-5.8,41.4-8.3,57.9
	c-2.5,16.5-4.7,30.3-6.6,41.6l-15.1,84.9l-5.7,32l-74.3,406.4h-80.1l-69.7-351c-9.5-46.2-17.9-93.1-25.4-140.8
	c-7.5-47.7-14.2-97.6-20.3-149.9l-34.3,641.6H529.6L602.2,151.2z"/>
</svg>
